<svg xmlns="http://www.w3.org/2000/svg" viewBox="0 0 512 408" role="img" aria-label="Discord">
  <path fill="#42a5f5" d="M181 1 74 33C25 107-1 227 2 337c35 29 78 52 125 68l34-59c-20-8-39-18-56-30l22-17c78 42 180 42 258 0l22 17c-17 12-36 22-56 30l34 59c47-16 90-39 125-68 3-110-23-230-72-304L331 1l-16 51c-39-9-79-9-118 0L181 1Z"/>
  <path fill="#151a1f" d="M171 257c-28 0-51-25-51-57s23-57 51-57 51 25 51 57-23 57-51 57Zm170 0c-28 0-51-25-51-57s23-57 51-57 51 25 51 57-23 57-51 57Z"/>
  <path fill="#d8efff" d="M122 105c85-31 183-31 268 0 9 3 6 16-4 14-85-23-175-23-260 0-10 2-13-11-4-14Z" opacity=".78"/>
</svg>
