<svg xmlns="http://www.w3.org/2000/svg" viewBox="0 0 64 64" role="img" aria-label="Settings">
  <path fill="#42a5f5" d="M36.7 4 39 11.6c2.1.7 4 1.5 5.8 2.6l7.1-3.7 7.2 12.5-6.4 4.8a22 22 0 0 1 0 8.4l6.4 4.8-7.2 12.5-7.1-3.7A26.3 26.3 0 0 1 39 52.4L36.7 60H22.3L20 52.4c-2.1-.7-4-1.5-5.8-2.6l-7.1 3.7L0 41l6.3-4.8a22 22 0 0 1 0-8.4L0 23 7.1 10.5l7.1 3.7c1.8-1.1 3.7-1.9 5.8-2.6L22.3 4h14.4Z"/>
  <circle cx="29.5" cy="32" r="10.5" fill="#151a1f"/>
  <circle cx="29.5" cy="32" r="5.8" fill="#d8efff"/>
</svg>
