<svg xmlns="http://www.w3.org/2000/svg" viewBox="0 0 256 256" role="img" aria-label="Telegram">
  <path fill="#42a5f5" d="M226.8 40.5c-4.8-4.1-11.5-5.1-18.4-2.3L29.2 111.6c-7.6 3.1-11.7 8.6-11.1 14.8.6 6.1 5.7 10.8 13.7 12.6l45.1 10.2 17.3 54.1c2.3 7.2 7.2 11.7 13.1 12.1 5.8.4 11.2-3.2 14.6-9.6l21.8-41.2 45.3 33.4c5.7 4.2 11.5 5.2 16.3 2.7 4.9-2.5 8.2-8.1 9.2-15.4l18.1-128.7c1-7.1-1-12.8-5.8-16.1Z"/>
  <path fill="#080909" d="M93.3 147.4 192.8 73c2.2-1.6 4.7 1.3 2.8 3.3l-75 80.1-5.2 37.4c-.3 2.4-3.6 2.7-4.4.4l-17.7-46.8Z"/>
  <path fill="#ffffff" d="m76.9 149.2 22.4 6.7 96.8-82.4c1.7-1.5-.1-4.1-2.1-3L76.9 149.2Z" opacity=".92"/>
</svg>
