<svg xmlns="http://www.w3.org/2000/svg" viewBox="0 0 256 256" role="img" aria-label="TikTok">
  <path fill="#ffffff" d="M129.8 72.2v82.1c0 21.9-17.8 39.7-39.7 39.7s-39.7-17.8-39.7-39.7 17.8-39.7 39.7-39.7c4.1 0 8.1.6 11.8 1.8V82.1c-3.9-.6-7.9-.9-12-.9-40.4 0-73.1 32.7-73.1 73.1s32.7 73.1 73.1 73.1 73.1-32.7 73.1-73.1V90.8c17.3 15.5 39.8 24.9 64.5 25.4V82.8c-33-.9-59.8-27.2-61.4-60h-36.3v49.4Z"/>
  <path fill="#42a5f5" d="M145.5 64.7v89.6c0 30.6-24.8 55.4-55.4 55.4S34.7 184.9 34.7 154.3s24.8-55.4 55.4-55.4c4 0 8 .4 11.8 1.3V75.7c-3.9-.5-7.9-.8-12-.8-43.9 0-79.4 35.6-79.4 79.4s35.6 79.4 79.4 79.4 79.4-35.6 79.4-79.4v-45.6c16.4 13 36.4 20.9 58.2 21.4v-25.6c-33-.9-59.8-27.2-61.4-60h-20.6v20.2Z"/>
  <path fill="#080909" d="M130.3 83.7v70.6c0 22.2-18 40.2-40.2 40.2s-40.2-18-40.2-40.2 18-40.2 40.2-40.2c4.1 0 8.1.6 11.8 1.8V91.4c-3.8-.7-7.8-1-12-1-35.3 0-63.9 28.6-63.9 63.9s28.6 63.9 63.9 63.9 63.9-28.6 63.9-63.9V78.5c16.6 15.8 38.7 25.5 63.2 26.1V89.1c-32.5-.9-58.8-27.1-59.9-59.6h-26.8v54.2Z"/>
</svg>
